<?xml version="1.0" encoding="UTF-8" standalone="no"?>
<!DOCTYPE svg PUBLIC "-//W3C//DTD SVG 1.1//EN"
 "http://www.w3.org/Graphics/SVG/1.1/DTD/svg11.dtd">
<!-- Generated by graphviz version 2.47.0 (20210316.0004)
 -->
<!-- Title: dependencies Pages: 1 -->
<svg width="738pt" height="284pt"
 viewBox="0.00 0.00 738.00 284.00" xmlns="http://www.w3.org/2000/svg" xmlns:xlink="http://www.w3.org/1999/xlink">
<g id="graph0" class="graph" transform="scale(1 1) rotate(0) translate(4 280)">
<title>dependencies</title>
<polygon fill="white" stroke="transparent" points="-4,4 -4,-280 734,-280 734,4 -4,4"/>
<text text-anchor="start" x="344.01" y="-42.4" font-family="sans-serif" font-weight="bold" font-size="14.00">Legend</text>
<polygon fill="#ffffb3" stroke="transparent" points="131,-10 131,-30 151,-30 151,-10 131,-10"/>
<text text-anchor="start" x="154.63" y="-15.4" font-family="sans-serif" font-size="14.00"> &#160;Declarations</text>
<polygon fill="#8dd3c7" stroke="transparent" points="244,-10 244,-30 264,-30 264,-10 244,-10"/>
<text text-anchor="start" x="267.73" y="-15.4" font-family="sans-serif" font-size="14.00"> &#160;Module</text>
<polygon fill="#80b1d3" stroke="transparent" points="330,-10 330,-30 350,-30 350,-10 330,-10"/>
<text text-anchor="start" x="353.78" y="-15.4" font-family="sans-serif" font-size="14.00"> &#160;Bootstrap</text>
<polygon fill="#fdb462" stroke="transparent" points="427,-10 427,-30 447,-30 447,-10 427,-10"/>
<text text-anchor="start" x="450.67" y="-15.4" font-family="sans-serif" font-size="14.00"> &#160;Providers</text>
<polygon fill="#fb8072" stroke="transparent" points="523,-10 523,-30 543,-30 543,-10 523,-10"/>
<text text-anchor="start" x="546.73" y="-15.4" font-family="sans-serif" font-size="14.00"> &#160;Exports</text>
<g id="clust1" class="cluster">
<title>cluster_AppModule</title>
<polygon fill="none" stroke="black" stroke-dasharray="1,5" points="8,-70 8,-268 722,-268 722,-70 8,-70"/>
</g>
<g id="clust9" class="cluster">
<title>cluster_AppModule_bootstrap</title>
<polygon fill="none" stroke="black" points="310,-208 310,-260 434,-260 434,-208 310,-208"/>
</g>
<g id="clust2" class="cluster">
<title>cluster_AppModule_declarations</title>
<polygon fill="none" stroke="black" points="16,-78 16,-130 714,-130 714,-78 16,-78"/>
</g>
<!-- AppComponent -->
<g id="node1" class="node">
<title>AppComponent</title>
<polygon fill="#ffffb3" stroke="black" points="705.94,-122 600.06,-122 600.06,-86 705.94,-86 705.94,-122"/>
<text text-anchor="middle" x="653" y="-99.8" font-family="Times,serif" font-size="14.00">AppComponent</text>
</g>
<!-- AppModule -->
<g id="node5" class="node">
<title>AppModule</title>
<polygon fill="#8dd3c7" stroke="black" points="413.66,-187 410.66,-191 389.66,-191 386.66,-187 330.34,-187 330.34,-151 413.66,-151 413.66,-187"/>
<text text-anchor="middle" x="372" y="-164.8" font-family="Times,serif" font-size="14.00">AppModule</text>
</g>
<!-- AppComponent&#45;&gt;AppModule -->
<g id="edge1" class="edge">
<title>AppComponent&#45;&gt;AppModule</title>
<path fill="none" stroke="black" d="M653,-122.11C653,-141.34 653,-169 653,-169 653,-169 423.77,-169 423.77,-169"/>
<polygon fill="black" stroke="black" points="423.77,-165.5 413.77,-169 423.77,-172.5 423.77,-165.5"/>
</g>
<!-- FieldValidationMessageComponent -->
<g id="node2" class="node">
<title>FieldValidationMessageComponent</title>
<polygon fill="#ffffb3" stroke="black" points="582.19,-122 363.81,-122 363.81,-86 582.19,-86 582.19,-122"/>
<text text-anchor="middle" x="473" y="-99.8" font-family="Times,serif" font-size="14.00">FieldValidationMessageComponent</text>
</g>
<!-- FieldValidationMessageComponent&#45;&gt;AppModule -->
<g id="edge2" class="edge">
<title>FieldValidationMessageComponent&#45;&gt;AppModule</title>
<path fill="none" stroke="black" d="M388.87,-122.11C388.87,-122.11 388.87,-140.99 388.87,-140.99"/>
<polygon fill="black" stroke="black" points="385.37,-140.99 388.87,-150.99 392.37,-140.99 385.37,-140.99"/>
</g>
<!-- NotificationComponent -->
<g id="node3" class="node">
<title>NotificationComponent</title>
<polygon fill="#ffffb3" stroke="black" points="345.48,-122 196.52,-122 196.52,-86 345.48,-86 345.48,-122"/>
<text text-anchor="middle" x="271" y="-99.8" font-family="Times,serif" font-size="14.00">NotificationComponent</text>
</g>
<!-- NotificationComponent&#45;&gt;AppModule -->
<g id="edge3" class="edge">
<title>NotificationComponent&#45;&gt;AppModule</title>
<path fill="none" stroke="black" d="M337.83,-122.11C337.83,-122.11 337.83,-140.99 337.83,-140.99"/>
<polygon fill="black" stroke="black" points="334.33,-140.99 337.83,-150.99 341.33,-140.99 334.33,-140.99"/>
</g>
<!-- SignUpFormComponent -->
<g id="node4" class="node">
<title>SignUpFormComponent</title>
<polygon fill="#ffffb3" stroke="black" points="178.45,-122 23.55,-122 23.55,-86 178.45,-86 178.45,-122"/>
<text text-anchor="middle" x="101" y="-99.8" font-family="Times,serif" font-size="14.00">SignUpFormComponent</text>
</g>
<!-- SignUpFormComponent&#45;&gt;AppModule -->
<g id="edge4" class="edge">
<title>SignUpFormComponent&#45;&gt;AppModule</title>
<path fill="none" stroke="black" d="M101,-122.11C101,-141.34 101,-169 101,-169 101,-169 320.25,-169 320.25,-169"/>
<polygon fill="black" stroke="black" points="320.25,-172.5 330.25,-169 320.25,-165.5 320.25,-172.5"/>
</g>
<!-- AppComponent  -->
<g id="node6" class="node">
<title>AppComponent </title>
<polygon fill="#80b1d3" stroke="black" points="426.44,-252 317.56,-252 317.56,-216 426.44,-216 426.44,-252"/>
<text text-anchor="middle" x="372" y="-229.8" font-family="Times,serif" font-size="14.00">AppComponent </text>
</g>
<!-- AppModule&#45;&gt;AppComponent  -->
<g id="edge5" class="edge">
<title>AppModule&#45;&gt;AppComponent </title>
<path fill="none" stroke="black" stroke-dasharray="1,5" d="M372,-187.11C372,-187.11 372,-205.99 372,-205.99"/>
<polygon fill="black" stroke="black" points="368.5,-205.99 372,-215.99 375.5,-205.99 368.5,-205.99"/>
</g>
</g>
</svg>
